<svg width="13" height="12" viewBox="0 0 13 12" fill="none" xmlns="http://www.w3.org/2000/svg">
<path d="M12.6524 5.61994C12.6048 5.49719 12.5335 5.38504 12.4424 5.28994L7.44242 0.289941C7.34918 0.196703 7.23849 0.122742 7.11667 0.0722818C6.99485 0.0218215 6.86428 -0.00415039 6.73242 -0.00415039C6.46612 -0.00415039 6.21073 0.101638 6.02242 0.289941C5.92918 0.38318 5.85522 0.49387 5.80476 0.615692C5.7543 0.737514 5.72833 0.868082 5.72833 0.999941C5.72833 1.26624 5.83412 1.52164 6.02242 1.70994L9.32242 4.99994H1.73242C1.46721 4.99994 1.21285 5.1053 1.02532 5.29283C0.837779 5.48037 0.732422 5.73472 0.732422 5.99994C0.732422 6.26516 0.837779 6.51951 1.02532 6.70705C1.21285 6.89458 1.46721 6.99994 1.73242 6.99994H9.32242L6.02242 10.2899C5.92869 10.3829 5.8543 10.4935 5.80353 10.6154C5.75276 10.7372 5.72662 10.8679 5.72662 10.9999C5.72662 11.132 5.75276 11.2627 5.80353 11.3845C5.8543 11.5064 5.92869 11.617 6.02242 11.7099C6.11538 11.8037 6.22599 11.8781 6.34784 11.9288C6.4697 11.9796 6.60041 12.0057 6.73242 12.0057C6.86443 12.0057 6.99514 11.9796 7.117 11.9288C7.23886 11.8781 7.34946 11.8037 7.44242 11.7099L12.4424 6.70994C12.5335 6.61484 12.6048 6.50269 12.6524 6.37994C12.7524 6.13648 12.7524 5.8634 12.6524 5.61994Z" fill="#0D161A"/>
</svg>
