<svg width="46" height="36" viewBox="0 0 46 36" fill="none" xmlns="http://www.w3.org/2000/svg">
<path d="M0.732422 35.0787L22.8691 0.182004L34.7344 7.77365L17.4133 35.0787H0.732422Z" fill="#FBBC04"/>
<path d="M22.4011 0H36.0274V35.0787H22.4011V0Z" fill="#1A73E8"/>
<path d="M8.28081 14.1492C12.011 14.1492 15.0349 11.1123 15.0349 7.36617C15.0349 3.62001 12.011 0.583136 8.28081 0.583136C4.55065 0.583136 1.52675 3.62001 1.52675 7.36617C1.52675 11.1123 4.55065 14.1492 8.28081 14.1492Z" fill="#EA4335"/>
<path d="M45.7324 25.332C45.7324 27.917 44.7099 30.3961 42.8899 32.224C41.0698 34.0519 38.6013 35.0787 36.0274 35.0787V15.5862C38.6011 15.5862 41.0695 16.613 42.8896 18.4407C44.7096 20.2683 45.7322 22.7472 45.7324 25.332Z" fill="#34A853"/>
<path d="M36.0274 15.5862V35.0787C33.4697 35.054 31.0252 34.0162 29.2254 32.1912C27.4255 30.3661 26.4158 27.9012 26.4158 25.3325C26.4158 22.7638 27.4255 20.2989 29.2254 18.4738C31.0252 16.6487 33.4697 15.611 36.0274 15.5862Z" fill="#0D652D"/>
<path d="M43.4964 8.08513C43.4962 10.0745 42.7092 11.9823 41.3085 13.3889C39.9078 14.7956 38.0082 15.586 36.0274 15.5862V0.583136C38.0084 0.583377 39.9081 1.37387 41.3088 2.78074C42.7095 4.18761 43.4964 6.09564 43.4964 8.08513Z" fill="#1A73E8"/>
<path d="M36.0274 0.583136V15.5862C34.0605 15.5645 32.1816 14.7646 30.7984 13.3602C29.4153 11.9557 28.6395 10.0601 28.6395 8.08468C28.6395 6.1093 29.4153 4.21364 30.7984 2.80919C32.1816 1.40473 34.0605 0.604838 36.0274 0.583136Z" fill="#174EA6"/>
</svg>
