<svg width="81" height="80" viewBox="0 0 81 80" fill="none" xmlns="http://www.w3.org/2000/svg">
<mask id="mask0_5_2160" style="mask-type:alpha" maskUnits="userSpaceOnUse" x="0" y="0" width="81" height="80">
<rect x="1.73242" y="1" width="78.0044" height="78" rx="9" fill="white" stroke="#0D161A" stroke-width="2"/>
</mask>
<g mask="url(#mask0_5_2160)">
<path d="M40.7351 97.9019C71.6079 97.9019 96.6353 72.8745 96.6353 42.0017C96.6353 11.1289 71.6079 -13.8984 40.7351 -13.8984C9.86231 -13.8984 -15.165 11.1289 -15.165 42.0017C-15.165 72.8745 9.86231 97.9019 40.7351 97.9019Z" fill="#4353FF"/>
<path d="M53.0733 32.614L48.5838 46.7635C48.5838 45.6799 45.4876 22.2109 45.4876 22.2109C38.3665 22.2109 34.5891 27.2577 32.6076 32.614L27.1274 46.7945C27.1274 45.7728 26.3533 32.7379 26.3533 32.7379C26.089 29.9161 24.799 27.2893 22.7277 25.3549C20.6563 23.4205 17.9475 22.3129 15.1143 22.2419L20.935 57.7859C28.3658 57.7859 32.3909 52.7391 34.4653 47.3828L39.1095 35.3077C39.1095 35.8031 42.2057 57.7859 42.2057 57.7859C45.2443 57.782 48.2026 56.8106 50.652 55.0125C53.1014 53.2144 54.9146 50.683 55.8288 47.7853L66.3558 22.2109C58.925 22.2109 55.0238 27.2577 53.0423 32.614H53.0733Z" fill="white"/>
</g>
</svg>
