<svg width="51" height="50" viewBox="0 0 51 50" fill="none" xmlns="http://www.w3.org/2000/svg">
<path d="M39.0824 8.65C38.4891 8.65 37.9091 8.82595 37.4157 9.15559C36.9224 9.48524 36.5378 9.95377 36.3108 10.5019C36.0837 11.0501 36.0243 11.6533 36.1401 12.2353C36.2558 12.8172 36.5415 13.3518 36.9611 13.7713C37.3807 14.1909 37.9152 14.4766 38.4972 14.5924C39.0791 14.7081 39.6823 14.6487 40.2305 14.4216C40.7787 14.1946 41.2472 13.8101 41.5768 13.3167C41.9065 12.8234 42.0824 12.2433 42.0824 11.65C42.0824 10.8544 41.7663 10.0913 41.2037 9.52868C40.6411 8.96607 39.8781 8.65 39.0824 8.65ZM50.5824 14.7C50.5338 12.6257 50.1453 10.5735 49.4324 8.625C48.7967 6.95783 47.8074 5.4482 46.5324 4.2C45.2945 2.91857 43.7813 1.93544 42.1074 1.325C40.1641 0.590402 38.1095 0.193025 36.0324 0.15C33.3824 -1.39698e-07 32.5324 0 25.7324 0C18.9324 0 18.0824 -1.39698e-07 15.4324 0.15C13.3553 0.193025 11.3008 0.590402 9.35742 1.325C7.68661 1.94162 6.17476 2.9239 4.93242 4.2C3.65099 5.43794 2.66786 6.9511 2.05742 8.625C1.32282 10.5684 0.925447 12.6229 0.882422 14.7C0.732422 17.35 0.732422 18.2 0.732422 25C0.732422 31.8 0.732422 32.65 0.882422 35.3C0.925447 37.3771 1.32282 39.4316 2.05742 41.375C2.66786 43.0489 3.65099 44.5621 4.93242 45.8C6.17476 47.0761 7.68661 48.0584 9.35742 48.675C11.3008 49.4096 13.3553 49.807 15.4324 49.85C18.0824 50 18.9324 50 25.7324 50C32.5324 50 33.3824 50 36.0324 49.85C38.1095 49.807 40.1641 49.4096 42.1074 48.675C43.7813 48.0646 45.2945 47.0814 46.5324 45.8C47.813 44.5564 48.8033 43.0455 49.4324 41.375C50.1453 39.4265 50.5338 37.3743 50.5824 35.3C50.5824 32.65 50.7324 31.8 50.7324 25C50.7324 18.2 50.7324 17.35 50.5824 14.7ZM46.0824 35C46.0642 36.5869 45.7768 38.1593 45.2324 39.65C44.8333 40.738 44.1921 41.7211 43.3574 42.525C42.5465 43.3513 41.5655 43.9911 40.4824 44.4C38.9917 44.9444 37.4194 45.2318 35.8324 45.25C33.3324 45.375 32.4074 45.4 25.8324 45.4C19.2574 45.4 18.3324 45.4 15.8324 45.25C14.1846 45.2809 12.5439 45.0271 10.9824 44.5C9.94688 44.0702 9.01081 43.432 8.23242 42.625C7.40264 41.8219 6.76953 40.838 6.38242 39.75C5.77206 38.2379 5.43353 36.6299 5.38242 35C5.38242 32.5 5.23242 31.575 5.23242 25C5.23242 18.425 5.23242 17.5 5.38242 15C5.39363 13.3776 5.6898 11.7699 6.25742 10.25C6.69754 9.19478 7.37308 8.25415 8.23242 7.5C8.99196 6.64042 9.93064 5.95774 10.9824 5.5C12.5063 4.95011 14.1124 4.6627 15.7324 4.65C18.2324 4.65 19.1574 4.5 25.7324 4.5C32.3074 4.5 33.2324 4.5 35.7324 4.65C37.3194 4.6682 38.8917 4.95562 40.3824 5.5C41.5185 5.92163 42.5382 6.60712 43.3574 7.5C44.1767 8.26795 44.8168 9.20683 45.2324 10.25C45.7881 11.7723 46.0756 13.3794 46.0824 15C46.2074 17.5 46.2324 18.425 46.2324 25C46.2324 31.575 46.2074 32.5 46.0824 35ZM25.7324 12.175C23.1969 12.1799 20.7198 12.9363 18.6141 14.3485C16.5083 15.7608 14.8684 17.7655 13.9015 20.1094C12.9346 22.4533 12.6842 25.0312 13.1819 27.5173C13.6796 30.0035 14.903 32.2863 16.6976 34.0774C18.4922 35.8686 20.7774 37.0875 23.2646 37.5804C25.7517 38.0732 28.3291 37.8178 30.6711 36.8463C33.0131 35.8749 35.0146 34.2311 36.4227 32.1226C37.8309 30.0141 38.5824 27.5355 38.5824 25C38.5857 23.3128 38.2554 21.6415 37.6105 20.0824C36.9656 18.5233 36.0188 17.107 34.8246 15.9151C33.6304 14.7232 32.2123 13.7792 30.6519 13.1373C29.0915 12.4955 27.4197 12.1684 25.7324 12.175ZM25.7324 33.325C24.0859 33.325 22.4763 32.8367 21.1073 31.922C19.7383 31.0072 18.6712 29.707 18.0411 28.1858C17.411 26.6646 17.2462 24.9908 17.5674 23.3759C17.8886 21.761 18.6815 20.2776 19.8458 19.1133C21.01 17.9491 22.4934 17.1562 24.1083 16.835C25.7232 16.5137 27.3971 16.6786 28.9183 17.3087C30.4395 17.9388 31.7396 19.0058 32.6544 20.3749C33.5692 21.7439 34.0574 23.3535 34.0574 25C34.0574 26.0933 33.8421 27.1758 33.4237 28.1858C33.0053 29.1959 32.3921 30.1136 31.6191 30.8867C30.846 31.6597 29.9283 32.2729 28.9183 32.6913C27.9082 33.1097 26.8257 33.325 25.7324 33.325Z" fill="#0D161A"/>
</svg>
