<svg width="51" height="50" viewBox="0 0 51 50" fill="none" xmlns="http://www.w3.org/2000/svg">
<path d="M46.7335 0H5.00474C2.72461 0 0.732422 1.64062 0.732422 3.89397V45.7154C0.732422 47.981 2.72461 50 5.00474 50H46.7212C49.0136 50 50.7323 47.9676 50.7323 45.7154V3.89397C50.7457 1.64062 49.0136 0 46.7335 0ZM16.2313 41.6775H9.06835V19.4062H16.2313V41.6775ZM12.8976 16.0201H12.8462C10.5538 16.0201 9.06946 14.3136 9.06946 12.1775C9.06946 10.0022 10.5929 8.33594 12.9366 8.33594C15.2804 8.33594 16.7145 9.98995 16.7659 12.1775C16.7648 14.3136 15.2804 16.0201 12.8976 16.0201ZM42.4098 41.6775H35.2469V29.5C35.2469 26.5826 34.2045 24.5893 31.613 24.5893C29.633 24.5893 28.4612 25.9286 27.94 27.2333C27.7447 27.702 27.6922 28.3404 27.6922 28.9922V41.6775H20.5293V19.4062H27.6922V22.5056C28.7346 21.0212 30.363 18.885 34.152 18.885C38.854 18.885 42.4109 21.9844 42.4109 28.6663L42.4098 41.6775Z" fill="#0D161A"/>
</svg>
