<svg width="61" height="61" viewBox="0 0 61 61" fill="none" xmlns="http://www.w3.org/2000/svg">
<path d="M55.2432 44.8361C58.3841 44.8361 60.9303 42.29 60.9303 39.1491V6.57476C60.9303 3.43388 58.3841 0.8877 55.2432 0.8877L5.68706 0.887695C2.54619 0.887695 6.73429e-06 3.43387 2.84774e-06 6.57475L0 39.1491C-2.74584e-07 42.2899 2.54618 44.8361 5.68706 44.8361H28.8919C28.8993 44.8438 28.9068 44.8513 28.9144 44.8589L43.6084 59.553C44.8026 60.7472 46.8446 59.9014 46.8446 58.2125V44.8361H55.2432Z" fill="#FFCC4A"/>
<rect x="15.5081" y="28.8198" width="28.4169" height="3.17639" rx="1.5882" fill="#1B1B1B"/>
<rect x="15.5081" y="20.6367" width="28.4169" height="3.17639" rx="1.5882" fill="#1B1B1B"/>
<rect x="15.5081" y="13.3008" width="28.4169" height="3.17639" rx="1.5882" fill="#1B1B1B"/>
</svg>
