<svg width="103" height="102" viewBox="0 0 103 102" fill="none" xmlns="http://www.w3.org/2000/svg">
<circle cx="51.4218" cy="50.6894" r="50.6894" fill="#0D161A"/>
<path d="M32.9925 72.0316C32.5432 71.1618 32.1987 70.2469 31.989 69.2721C31.7494 68.2822 31.6445 67.2624 31.6445 66.1826C31.6445 65.1027 31.8243 63.678 32.1987 61.9083C32.5731 60.1385 33.0824 58.2638 33.7264 56.3142C34.3704 54.3495 35.1193 52.3398 35.973 50.2852C36.8267 48.2305 37.7403 46.2358 38.6989 44.2711C40.6609 40.2068 42.623 36.6824 44.585 33.7128H44.2405C41.8441 33.7128 39.6275 34.2528 37.5756 35.3476C37.0813 35.7375 36.6021 35.9175 36.1378 35.9175C35.1792 35.9175 34.2356 35.4376 33.337 34.4927C31.2401 32.2731 32.4982 30.4434 37.0813 29.0036C39.2381 28.2987 40.9605 27.9388 42.2785 27.9388C43.5965 27.9388 44.6599 28.1488 45.4537 28.5537C46.2475 28.9586 46.9365 29.4535 47.5056 30.0235C48.3893 30.9083 49.0183 31.7782 49.3928 32.648C49.7672 33.5179 49.9469 34.2678 49.9469 34.9277C49.9469 35.5876 49.7522 36.4574 49.3628 37.5522C48.9734 38.6471 48.4791 39.8169 47.8651 41.0617L45.8132 45.051C45.0942 46.4458 44.3604 47.9005 43.6414 49.4303C42.9225 50.96 42.1886 52.4898 41.4697 54.0195C40.7508 55.5493 40.1068 57.0341 39.5376 58.4888C38.3095 61.7283 37.6954 64.4728 37.6954 66.7375C37.6954 68.1023 37.8302 69.2271 38.0848 70.1119C38.9685 68.7022 40.0469 67.2324 41.3349 65.7026L45.5585 60.9634C50.4412 55.6843 53.6164 52.1898 55.0842 50.4651C58.514 46.4158 61.15 42.6064 62.9773 39.022C63.7261 37.5972 64.0856 36.2924 64.0856 35.1226C64.0856 32.963 63.4865 31.3432 62.3033 30.2634C61.8839 29.8435 61.824 29.3336 62.1385 28.7187C62.4531 28.1038 62.7676 27.6688 63.0821 27.3539C63.8609 26.649 64.7446 26.2891 65.7331 26.2891C66.7216 26.2891 67.5454 26.484 68.2343 26.889C68.9233 27.2939 69.4775 27.8038 69.8968 28.4337C70.7655 29.6635 71.1999 31.1783 71.1999 33.008C71.1999 34.8227 70.8105 36.7574 70.0466 38.782C69.2678 40.8217 68.2643 42.8014 67.0062 44.7511C65.7481 46.6857 64.3252 48.5754 62.7227 50.3901C61.1201 52.2048 59.4875 53.9446 57.825 55.5943L48.7188 64.2029C45.9629 66.9774 44.1207 68.8821 43.2071 69.902C41.4398 71.8816 40.3015 73.1714 39.8072 73.8013C39.313 74.4312 38.8487 74.7912 38.4443 74.9111C38.0399 75.0311 37.5007 75.0911 36.8117 75.0911C36.1228 75.0911 35.4338 74.7912 34.7149 74.1913C34.0259 73.6213 33.4418 72.8865 32.9925 72.0316Z" fill="white"/>
</svg>
