<svg width="46" height="45" viewBox="0 0 46 45" fill="none" xmlns="http://www.w3.org/2000/svg">
<path d="M3.54492 0H42.9199C43.6658 0 44.3812 0.296316 44.9087 0.823762C45.4361 1.35121 45.7324 2.06658 45.7324 2.8125V42.1875C45.7324 42.9334 45.4361 43.6488 44.9087 44.1762C44.3812 44.7037 43.6658 45 42.9199 45H3.54492C2.799 45 2.08363 44.7037 1.55618 44.1762C1.02874 43.6488 0.732422 42.9334 0.732422 42.1875V2.8125C0.732422 2.06658 1.02874 1.35121 1.55618 0.823762C2.08363 0.296316 2.799 0 3.54492 0Z" fill="#05A081"/>
<path d="M19.0137 29.5312H24.446V24.255H26.0871C26.664 24.255 27.2353 24.1414 27.7683 23.9206C28.3013 23.6998 28.7856 23.3762 29.1935 22.9683C29.6015 22.5603 29.9251 22.076 30.1458 21.5431C30.3666 21.0101 30.4802 20.4388 30.4802 19.8619C30.4802 19.285 30.3666 18.7137 30.1458 18.1807C29.9251 17.6477 29.6015 17.1634 29.1935 16.7555C28.7856 16.3475 28.3013 16.0239 27.7683 15.8032C27.2353 15.5824 26.664 15.4688 26.0871 15.4688H19.0137V29.5312ZM27.2585 32.3438H16.2012V12.6562H26.0871C27.8967 12.6559 29.6401 13.3364 30.971 14.5626C32.3018 15.7887 33.1225 17.4707 33.2701 19.2742C33.4177 21.0778 32.8813 22.8708 31.7675 24.297C30.6537 25.7232 29.0441 26.678 27.2585 26.9719V32.3438Z" fill="white"/>
</svg>
