<svg width="63" height="50" viewBox="0 0 63 50" fill="none" xmlns="http://www.w3.org/2000/svg">
<path d="M62.2709 5.92448C59.9625 6.94317 57.5201 7.6143 55.0209 7.91666C57.6474 6.35466 59.6226 3.87314 60.576 0.937519C58.0928 2.41224 55.3806 3.44698 52.5555 3.99741C51.3659 2.73117 49.9352 1.72385 48.3503 1.03667C46.7654 0.349481 45.0595 -0.00321266 43.3363 2.205e-05C36.3593 2.205e-05 30.7132 5.65104 30.7132 12.6172C30.7082 13.5861 30.8176 14.5522 31.0388 15.4948C26.0359 15.2566 21.1369 13.9604 16.6555 11.6891C12.174 9.41787 8.20868 6.22156 5.01319 2.3047C3.89213 4.22412 3.29926 6.41412 3.29652 8.64583C3.29652 13.0208 5.54396 16.888 8.93755 19.1536C6.92694 19.1051 4.95754 18.5647 3.19652 17.5781V17.7343C3.19652 23.8541 7.5555 28.9452 13.3247 30.1041C12.2398 30.3978 11.1219 30.5466 9.99909 30.5468C9.20239 30.5482 8.40751 30.4697 7.62601 30.3124C9.22986 35.3254 13.8978 38.9713 19.4273 39.0754C14.9342 42.5922 9.41783 44.493 3.74524 44.4791C2.73834 44.4775 1.73238 44.4167 0.732422 44.2968C6.50316 48.0392 13.2112 50.0188 20.0581 49.9999C43.3093 49.9999 56.0119 30.7682 56.0119 14.0885C56.0119 13.5416 55.9978 12.9948 55.9722 12.4609C58.4377 10.6798 60.5706 8.46629 62.2709 5.92448Z" fill="#0D161A"/>
</svg>
